<svg width="640" height="574" viewBox="0 0 640 574" fill="none" xmlns="http://www.w3.org/2000/svg">
<path fill-rule="evenodd" clip-rule="evenodd" d="M164 0C99.935 0 48 51.935 48 116V313.94L0.785583 573.367L168.11 519H424C543.294 519 640 422.294 640 303V152C640 68.0527 571.947 0 488 0H164Z" fill="url(#paint0_linear_2_8)"/>
<path d="M323.855 402.798C321.195 355.716 319.865 314.752 319.865 279.906C319.865 244.794 320.663 208.219 322.259 170.181L273.581 176.964L264.803 130.68C290.871 126.158 316.673 122.833 342.209 120.705L416.822 116.715L424.403 161.004C409.773 161.802 393.281 162.999 374.927 164.595C373.331 202.899 372.533 238.011 372.533 269.931C372.533 301.851 373.065 347.603 374.129 407.187L323.855 402.798Z" fill="#FDF9F9"/>
<path d="M323.855 402.798L297.896 404.265L299.166 426.742L321.594 428.699L323.855 402.798ZM322.259 170.181L348.236 171.271L349.543 140.128L318.671 144.43L322.259 170.181ZM273.581 176.964L248.036 181.809L252.649 206.132L277.169 202.715L273.581 176.964ZM264.803 130.68L260.359 105.063L234.337 109.577L239.258 135.525L264.803 130.68ZM342.209 120.705L340.821 94.7421L340.435 94.7627L340.05 94.7948L342.209 120.705ZM416.822 116.715L442.449 112.328L438.545 89.5162L415.434 90.7521L416.822 116.715ZM424.403 161.004L425.819 186.965L454.953 185.376L450.03 156.617L424.403 161.004ZM374.927 164.595L372.675 138.693L349.901 140.673L348.95 163.513L374.927 164.595ZM374.129 407.187L371.868 433.088L400.641 435.6L400.125 406.723L374.129 407.187ZM349.814 401.331C347.172 354.58 345.865 314.127 345.865 279.906H293.865C293.865 315.377 295.218 356.852 297.896 404.265L349.814 401.331ZM345.865 279.906C345.865 245.186 346.654 208.976 348.236 171.271L296.282 169.091C294.672 207.462 293.865 244.402 293.865 279.906H345.865ZM318.671 144.43L269.993 151.213L277.169 202.715L325.847 195.932L318.671 144.43ZM299.126 172.119L290.348 125.835L239.258 135.525L248.036 181.809L299.126 172.119ZM269.247 156.297C294.582 151.902 319.622 148.677 344.368 146.615L340.05 94.7948C313.724 96.9886 287.16 100.414 260.359 105.063L269.247 156.297ZM343.597 146.668L418.21 142.678L415.434 90.7521L340.821 94.7421L343.597 146.668ZM391.195 121.102L398.776 165.391L450.03 156.617L442.449 112.328L391.195 121.102ZM422.987 135.043C408.018 135.859 391.24 137.078 372.675 138.693L377.179 190.497C395.322 188.92 411.528 187.745 425.819 186.965L422.987 135.043ZM348.95 163.513C347.341 202.108 346.533 237.587 346.533 269.931H398.533C398.533 238.435 399.321 203.69 400.904 165.677L348.95 163.513ZM346.533 269.931C346.533 302.085 347.068 348.02 348.133 407.651L400.125 406.723C399.062 347.186 398.533 301.617 398.533 269.931H346.533ZM376.39 381.286L326.116 376.897L321.594 428.699L371.868 433.088L376.39 381.286Z" fill="#FDF9F9"/>
<defs>
<linearGradient id="paint0_linear_2_8" x1="320.393" y1="0" x2="320.393" y2="573.367" gradientUnits="userSpaceOnUse">
<stop stop-color="#1F1CC3"/>
<stop offset="0.398914" stop-color="#1D8EBC"/>
<stop offset="0.65975" stop-color="#1CC3B9"/>
</linearGradient>
</defs>
</svg>
